# xmcd
#
# Track frame offsets: 
#        150
#        14882
#        31257
#        43832
#        61882
#        78150
#        97570
#        114975
#        131502
#        146250
#
# Disc length: 2560 seconds
#
# Revision: 0
# Processed by: cddbd v1.5.2PL0 Copyright (c) Steve Scherf et al.
# Submitted via: ExactAudioCopy v0.99pb5
#
DISCID=7509fe0a
DTITLE=Clifton Jansky - Above The Clouds
DYEAR=1999
DGENRE=Christian Country
TTITLE0=Walkin' In The Power Of His Light
TTITLE1=God's Master Plan 
TTITLE2=It Takes Faith
TTITLE3=Thanks For The Valleys
TTITLE4=Forever In His Hand
TTITLE5=I'm Gonna Walk In Victory
TTITLE6=Livin' My Life With One Less O
TTITLE7=A Servant's Prayer
TTITLE8=No Choice But Rejoice
TTITLE9=Where Is Our Peace - Above The Clouds
EXTD=
EXTT0=
EXTT1=
EXTT2=
EXTT3=
EXTT4=
EXTT5=
EXTT6=
EXTT7=
EXTT8=
EXTT9=
PLAYORDER=
